#define 1561096609037_width 24
#define 1561096609037_height 20
static char 1561096609037_bits[] = {
  0xC0, 0xFF, 0x03, 0xE0, 0xFF, 0x07, 0x60, 0x00, 0x06, 0x30, 0x00, 0x0C, 
  0x18, 0x00, 0x18, 0x98, 0xFF, 0x19, 0x8C, 0xFF, 0x31, 0x0C, 0x98, 0x31, 
  0x06, 0x98, 0x61, 0x83, 0x9F, 0xC1, 0x83, 0x9F, 0xC1, 0x06, 0x80, 0x61, 
  0x0C, 0x80, 0x31, 0x8C, 0xFF, 0x31, 0x98, 0xFF, 0x19, 0x18, 0x00, 0x18, 
  0x30, 0x00, 0x0C, 0x60, 0x00, 0x06, 0xE0, 0xFF, 0x07, 0xC0, 0xFF, 0x03, 
  };
